<svg width="690" height="417" viewBox="0 0 690 417" fill="none" xmlns="http://www.w3.org/2000/svg">
<rect opacity="0.05" width="351.978" height="341.124" rx="12.4045" transform="matrix(-1 0 0 1 690 55.6629)" fill="#0023D2"/>
<path d="M39.9087 321.684H41.8015V329.051C41.8015 329.889 41.6198 330.59 41.2564 331.156C40.893 331.721 40.3983 332.148 39.7725 332.435C39.1516 332.718 38.4576 332.859 37.6904 332.859C36.898 332.859 36.1913 332.718 35.5705 332.435C34.9497 332.148 34.4601 331.721 34.1017 331.156C33.7484 330.59 33.5717 329.889 33.5717 329.051V321.684H35.4645V329.051C35.4645 329.581 35.5553 330.018 35.7371 330.361C35.9188 330.699 36.1762 330.949 36.5093 331.11C36.8424 331.272 37.2361 331.353 37.6904 331.353C38.1447 331.353 38.5358 331.272 38.8639 331.11C39.197 330.949 39.4545 330.699 39.6362 330.361C39.8179 330.018 39.9087 329.581 39.9087 329.051V321.684ZM48.2824 330.49C48.2824 330.308 48.2369 330.144 48.1461 329.997C48.0552 329.846 47.8811 329.71 47.6237 329.589C47.3713 329.467 46.9978 329.356 46.5032 329.255C46.0691 329.16 45.6703 329.046 45.3069 328.915C44.9486 328.778 44.6407 328.614 44.3833 328.423C44.1258 328.231 43.9265 328.004 43.7851 327.741C43.6438 327.479 43.5731 327.176 43.5731 326.833C43.5731 326.5 43.6463 326.184 43.7927 325.886C43.9391 325.588 44.1485 325.326 44.4211 325.099C44.6937 324.872 45.0243 324.693 45.4129 324.561C45.8066 324.43 46.2457 324.365 46.7303 324.365C47.4167 324.365 48.0048 324.481 48.4944 324.713C48.989 324.94 49.3676 325.25 49.63 325.644C49.8925 326.033 50.0237 326.472 50.0237 326.961H48.1991C48.1991 326.744 48.1436 326.542 48.0325 326.356C47.9265 326.164 47.765 326.01 47.548 325.894C47.3309 325.773 47.0584 325.712 46.7303 325.712C46.4174 325.712 46.1574 325.763 45.9505 325.864C45.7486 325.959 45.5972 326.086 45.4962 326.242C45.4003 326.399 45.3524 326.57 45.3524 326.757C45.3524 326.893 45.3776 327.017 45.4281 327.128C45.4836 327.234 45.5744 327.332 45.7006 327.423C45.8268 327.509 45.9984 327.59 46.2155 327.666C46.4375 327.741 46.7152 327.814 47.0483 327.885C47.6742 328.016 48.2117 328.185 48.6609 328.392C49.1152 328.594 49.4635 328.857 49.7057 329.18C49.948 329.498 50.0691 329.901 50.0691 330.391C50.0691 330.755 49.9909 331.088 49.8344 331.39C49.683 331.688 49.4609 331.948 49.1682 332.17C48.8754 332.387 48.5246 332.556 48.1158 332.678C47.712 332.799 47.2577 332.859 46.753 332.859C46.011 332.859 45.3826 332.728 44.8678 332.466C44.353 332.198 43.9618 331.857 43.6943 331.443C43.4318 331.025 43.3006 330.59 43.3006 330.141H45.0647C45.0848 330.479 45.1782 330.749 45.3448 330.951C45.5164 331.148 45.7284 331.292 45.9808 331.383C46.2382 331.469 46.5032 331.512 46.7757 331.512C47.1038 331.512 47.3789 331.469 47.601 331.383C47.8231 331.292 47.9921 331.171 48.1082 331.019C48.2243 330.863 48.2824 330.686 48.2824 330.49ZM55.2781 332.859C54.6724 332.859 54.1247 332.761 53.6351 332.564C53.1506 332.362 52.7367 332.082 52.3935 331.724C52.0553 331.365 51.7954 330.944 51.6137 330.459C51.4319 329.975 51.3411 329.452 51.3411 328.892V328.589C51.3411 327.948 51.4345 327.368 51.6212 326.848C51.808 326.328 52.0679 325.884 52.4011 325.515C52.7342 325.142 53.1279 324.857 53.5821 324.66C54.0364 324.463 54.5285 324.365 55.0585 324.365C55.644 324.365 56.1563 324.463 56.5954 324.66C57.0346 324.857 57.398 325.134 57.6857 325.493C57.9784 325.846 58.1955 326.267 58.3368 326.757C58.4832 327.247 58.5564 327.787 58.5564 328.377V329.157H52.2269V327.847H56.7544V327.703C56.7443 327.375 56.6787 327.067 56.5576 326.78C56.4415 326.492 56.2623 326.26 56.02 326.083C55.7778 325.906 55.4547 325.818 55.0509 325.818C54.7481 325.818 54.4781 325.884 54.2408 326.015C54.0086 326.141 53.8143 326.325 53.6579 326.568C53.5014 326.81 53.3802 327.103 53.2944 327.446C53.2137 327.784 53.1733 328.165 53.1733 328.589V328.892C53.1733 329.25 53.2213 329.584 53.3172 329.891C53.4181 330.194 53.5645 330.459 53.7563 330.686C53.9481 330.914 54.1803 331.093 54.4528 331.224C54.7254 331.35 55.0358 331.413 55.3841 331.413C55.8232 331.413 56.2144 331.325 56.5576 331.148C56.9008 330.972 57.1986 330.722 57.451 330.399L58.4125 331.33C58.2358 331.587 58.0062 331.835 57.7235 332.072C57.4409 332.304 57.0951 332.493 56.6863 332.64C56.2825 332.786 55.8131 332.859 55.2781 332.859ZM61.8119 326.076V332.708H59.9873V324.516H61.7286L61.8119 326.076ZM64.318 324.463L64.3028 326.159C64.1918 326.139 64.0706 326.124 63.9394 326.113C63.8132 326.103 63.687 326.098 63.5609 326.098C63.2479 326.098 62.9728 326.144 62.7356 326.235C62.4984 326.32 62.299 326.447 62.1375 326.613C61.981 326.775 61.8599 326.971 61.7741 327.204C61.6883 327.436 61.6378 327.696 61.6227 327.983L61.2062 328.014C61.2062 327.499 61.2567 327.022 61.3577 326.583C61.4586 326.144 61.61 325.758 61.8119 325.424C62.0189 325.091 62.2763 324.831 62.5842 324.645C62.8971 324.458 63.258 324.365 63.6668 324.365C63.7779 324.365 63.8965 324.375 64.0227 324.395C64.1539 324.415 64.2523 324.438 64.318 324.463Z" fill="#0023D2"/>
<path d="M225.949 359.55H229.848C230.686 359.55 231.4 359.676 231.99 359.928C232.581 360.18 233.033 360.554 233.346 361.049C233.664 361.538 233.823 362.144 233.823 362.866C233.823 363.416 233.722 363.9 233.52 364.319C233.318 364.738 233.033 365.092 232.664 365.379C232.296 365.662 231.857 365.881 231.347 366.038L230.771 366.318H227.266L227.251 364.811H229.878C230.332 364.811 230.711 364.731 231.014 364.569C231.317 364.408 231.544 364.188 231.695 363.91C231.852 363.628 231.93 363.31 231.93 362.956C231.93 362.573 231.854 362.24 231.703 361.957C231.556 361.669 231.329 361.45 231.021 361.298C230.713 361.142 230.322 361.064 229.848 361.064H227.849V370.573H225.949V359.55ZM232.24 370.573L229.651 365.622L231.642 365.614L234.269 370.475V370.573H232.24ZM239.145 370.724C238.539 370.724 237.992 370.626 237.502 370.429C237.018 370.227 236.604 369.947 236.26 369.589C235.922 369.23 235.662 368.809 235.481 368.324C235.299 367.84 235.208 367.317 235.208 366.757V366.454C235.208 365.813 235.301 365.233 235.488 364.713C235.675 364.193 235.935 363.749 236.268 363.38C236.601 363.007 236.995 362.722 237.449 362.525C237.903 362.328 238.396 362.23 238.926 362.23C239.511 362.23 240.023 362.328 240.462 362.525C240.902 362.722 241.265 362.999 241.553 363.358C241.845 363.711 242.062 364.133 242.204 364.622C242.35 365.112 242.423 365.652 242.423 366.242V367.022H236.094V365.712H240.621V365.569C240.611 365.24 240.546 364.933 240.425 364.645C240.309 364.357 240.129 364.125 239.887 363.948C239.645 363.772 239.322 363.683 238.918 363.683C238.615 363.683 238.345 363.749 238.108 363.88C237.876 364.006 237.681 364.191 237.525 364.433C237.368 364.675 237.247 364.968 237.161 365.311C237.081 365.649 237.04 366.03 237.04 366.454V366.757C237.04 367.116 237.088 367.449 237.184 367.757C237.285 368.059 237.431 368.324 237.623 368.552C237.815 368.779 238.047 368.958 238.32 369.089C238.592 369.215 238.903 369.278 239.251 369.278C239.69 369.278 240.081 369.19 240.425 369.013C240.768 368.837 241.066 368.587 241.318 368.264L242.28 369.195C242.103 369.453 241.873 369.7 241.591 369.937C241.308 370.169 240.962 370.359 240.553 370.505C240.15 370.651 239.68 370.724 239.145 370.724ZM248.442 368.355C248.442 368.173 248.397 368.009 248.306 367.863C248.215 367.711 248.041 367.575 247.784 367.454C247.531 367.333 247.158 367.222 246.663 367.121C246.229 367.025 245.83 366.911 245.467 366.78C245.109 366.644 244.801 366.48 244.543 366.288C244.286 366.096 244.086 365.869 243.945 365.606C243.804 365.344 243.733 365.041 243.733 364.698C243.733 364.365 243.806 364.049 243.953 363.751C244.099 363.454 244.309 363.191 244.581 362.964C244.854 362.737 245.184 362.558 245.573 362.427C245.967 362.295 246.406 362.23 246.89 362.23C247.577 362.23 248.165 362.346 248.654 362.578C249.149 362.805 249.528 363.115 249.79 363.509C250.053 363.898 250.184 364.337 250.184 364.827H248.359C248.359 364.61 248.304 364.408 248.193 364.221C248.087 364.029 247.925 363.875 247.708 363.759C247.491 363.638 247.218 363.577 246.89 363.577C246.577 363.577 246.317 363.628 246.11 363.729C245.909 363.825 245.757 363.951 245.656 364.107C245.56 364.264 245.512 364.435 245.512 364.622C245.512 364.758 245.538 364.882 245.588 364.993C245.644 365.099 245.734 365.198 245.861 365.288C245.987 365.374 246.158 365.455 246.375 365.531C246.598 365.606 246.875 365.68 247.208 365.75C247.834 365.881 248.372 366.051 248.821 366.258C249.275 366.459 249.623 366.722 249.866 367.045C250.108 367.363 250.229 367.767 250.229 368.256C250.229 368.62 250.151 368.953 249.994 369.256C249.843 369.553 249.621 369.813 249.328 370.035C249.035 370.253 248.685 370.422 248.276 370.543C247.872 370.664 247.418 370.724 246.913 370.724C246.171 370.724 245.543 370.593 245.028 370.331C244.513 370.063 244.122 369.723 243.854 369.309C243.592 368.89 243.461 368.456 243.461 368.006H245.225C245.245 368.345 245.338 368.615 245.505 368.817C245.676 369.013 245.888 369.157 246.141 369.248C246.398 369.334 246.663 369.377 246.936 369.377C247.264 369.377 247.539 369.334 247.761 369.248C247.983 369.157 248.152 369.036 248.268 368.885C248.384 368.728 248.442 368.552 248.442 368.355ZM253.659 363.956V373.723H251.834V362.381H253.515L253.659 363.956ZM258.997 366.401V366.56C258.997 367.156 258.926 367.709 258.785 368.218C258.648 368.723 258.444 369.165 258.171 369.543C257.904 369.917 257.573 370.207 257.179 370.414C256.786 370.621 256.331 370.724 255.817 370.724C255.307 370.724 254.86 370.631 254.477 370.444C254.098 370.253 253.777 369.982 253.515 369.634C253.253 369.286 253.041 368.877 252.879 368.408C252.723 367.933 252.612 367.413 252.546 366.848V366.235C252.612 365.634 252.723 365.089 252.879 364.599C253.041 364.11 253.253 363.688 253.515 363.335C253.777 362.982 254.098 362.709 254.477 362.517C254.855 362.326 255.297 362.23 255.802 362.23C256.316 362.23 256.773 362.331 257.172 362.533C257.571 362.729 257.906 363.012 258.179 363.38C258.451 363.744 258.656 364.183 258.792 364.698C258.928 365.208 258.997 365.775 258.997 366.401ZM257.172 366.56V366.401C257.172 366.023 257.137 365.672 257.066 365.349C256.995 365.021 256.884 364.733 256.733 364.486C256.581 364.239 256.387 364.047 256.15 363.91C255.918 363.769 255.637 363.698 255.309 363.698C254.986 363.698 254.709 363.754 254.477 363.865C254.244 363.971 254.05 364.12 253.894 364.312C253.737 364.504 253.616 364.728 253.53 364.986C253.444 365.238 253.384 365.513 253.348 365.811V367.28C253.409 367.643 253.513 367.976 253.659 368.279C253.805 368.582 254.012 368.824 254.28 369.006C254.552 369.182 254.901 369.271 255.325 369.271C255.653 369.271 255.933 369.2 256.165 369.059C256.397 368.917 256.586 368.723 256.733 368.476C256.884 368.223 256.995 367.933 257.066 367.605C257.137 367.277 257.172 366.929 257.172 366.56ZM260.2 366.568V366.394C260.2 365.803 260.286 365.256 260.458 364.751C260.629 364.241 260.877 363.799 261.2 363.426C261.528 363.047 261.927 362.755 262.396 362.548C262.87 362.336 263.405 362.23 264.001 362.23C264.602 362.23 265.137 362.336 265.606 362.548C266.081 362.755 266.482 363.047 266.81 363.426C267.138 363.799 267.388 364.241 267.559 364.751C267.731 365.256 267.817 365.803 267.817 366.394V366.568C267.817 367.158 267.731 367.706 267.559 368.211C267.388 368.716 267.138 369.157 266.81 369.536C266.482 369.909 266.083 370.202 265.614 370.414C265.144 370.621 264.612 370.724 264.016 370.724C263.416 370.724 262.878 370.621 262.404 370.414C261.934 370.202 261.535 369.909 261.207 369.536C260.879 369.157 260.629 368.716 260.458 368.211C260.286 367.706 260.2 367.158 260.2 366.568ZM262.025 366.394V366.568C262.025 366.936 262.063 367.285 262.139 367.613C262.214 367.941 262.333 368.229 262.494 368.476C262.656 368.723 262.863 368.917 263.115 369.059C263.368 369.2 263.668 369.271 264.016 369.271C264.354 369.271 264.647 369.2 264.894 369.059C265.147 368.917 265.354 368.723 265.515 368.476C265.677 368.229 265.795 367.941 265.871 367.613C265.952 367.285 265.992 366.936 265.992 366.568V366.394C265.992 366.03 265.952 365.687 265.871 365.364C265.795 365.036 265.674 364.746 265.508 364.493C265.346 364.241 265.139 364.044 264.887 363.903C264.64 363.757 264.344 363.683 264.001 363.683C263.658 363.683 263.36 363.757 263.108 363.903C262.86 364.044 262.656 364.241 262.494 364.493C262.333 364.746 262.214 365.036 262.139 365.364C262.063 365.687 262.025 366.03 262.025 366.394ZM271.156 364.13V370.573H269.331V362.381H271.05L271.156 364.13ZM270.83 366.174L270.24 366.167C270.245 365.586 270.325 365.054 270.482 364.569C270.643 364.085 270.865 363.668 271.148 363.32C271.436 362.972 271.779 362.704 272.178 362.517C272.577 362.326 273.021 362.23 273.51 362.23C273.904 362.23 274.26 362.285 274.578 362.396C274.901 362.502 275.176 362.676 275.403 362.919C275.635 363.161 275.812 363.476 275.933 363.865C276.054 364.249 276.115 364.721 276.115 365.281V370.573H274.283V365.273C274.283 364.88 274.225 364.569 274.108 364.342C273.997 364.11 273.833 363.946 273.616 363.85C273.404 363.749 273.139 363.698 272.821 363.698C272.508 363.698 272.228 363.764 271.981 363.895C271.734 364.027 271.524 364.206 271.353 364.433C271.186 364.66 271.057 364.922 270.966 365.22C270.876 365.518 270.83 365.836 270.83 366.174ZM282.573 368.355C282.573 368.173 282.527 368.009 282.437 367.863C282.346 367.711 282.172 367.575 281.914 367.454C281.662 367.333 281.288 367.222 280.794 367.121C280.36 367.025 279.961 366.911 279.597 366.78C279.239 366.644 278.931 366.48 278.674 366.288C278.416 366.096 278.217 365.869 278.076 365.606C277.934 365.344 277.864 365.041 277.864 364.698C277.864 364.365 277.937 364.049 278.083 363.751C278.23 363.454 278.439 363.191 278.712 362.964C278.984 362.737 279.315 362.558 279.703 362.427C280.097 362.295 280.536 362.23 281.021 362.23C281.707 362.23 282.295 362.346 282.785 362.578C283.28 362.805 283.658 363.115 283.921 363.509C284.183 363.898 284.314 364.337 284.314 364.827H282.49C282.49 364.61 282.434 364.408 282.323 364.221C282.217 364.029 282.056 363.875 281.839 363.759C281.621 363.638 281.349 363.577 281.021 363.577C280.708 363.577 280.448 363.628 280.241 363.729C280.039 363.825 279.888 363.951 279.787 364.107C279.691 364.264 279.643 364.435 279.643 364.622C279.643 364.758 279.668 364.882 279.719 364.993C279.774 365.099 279.865 365.198 279.991 365.288C280.117 365.374 280.289 365.455 280.506 365.531C280.728 365.606 281.006 365.68 281.339 365.75C281.965 365.881 282.502 366.051 282.951 366.258C283.406 366.459 283.754 366.722 283.996 367.045C284.239 367.363 284.36 367.767 284.36 368.256C284.36 368.62 284.281 368.953 284.125 369.256C283.974 369.553 283.751 369.813 283.459 370.035C283.166 370.253 282.815 370.422 282.406 370.543C282.003 370.664 281.548 370.724 281.044 370.724C280.302 370.724 279.673 370.593 279.158 370.331C278.644 370.063 278.252 369.723 277.985 369.309C277.722 368.89 277.591 368.456 277.591 368.006H279.355C279.375 368.345 279.469 368.615 279.635 368.817C279.807 369.013 280.019 369.157 280.271 369.248C280.529 369.334 280.794 369.377 281.066 369.377C281.394 369.377 281.669 369.334 281.892 369.248C282.114 369.157 282.283 369.036 282.399 368.885C282.515 368.728 282.573 368.552 282.573 368.355ZM289.569 370.724C288.963 370.724 288.415 370.626 287.926 370.429C287.441 370.227 287.027 369.947 286.684 369.589C286.346 369.23 286.086 368.809 285.904 368.324C285.723 367.84 285.632 367.317 285.632 366.757V366.454C285.632 365.813 285.725 365.233 285.912 364.713C286.099 364.193 286.358 363.749 286.692 363.38C287.025 363.007 287.418 362.722 287.873 362.525C288.327 362.328 288.819 362.23 289.349 362.23C289.935 362.23 290.447 362.328 290.886 362.525C291.325 362.722 291.689 362.999 291.976 363.358C292.269 363.711 292.486 364.133 292.627 364.622C292.774 365.112 292.847 365.652 292.847 366.242V367.022H286.517V365.712H291.045V365.569C291.035 365.24 290.969 364.933 290.848 364.645C290.732 364.357 290.553 364.125 290.311 363.948C290.068 363.772 289.745 363.683 289.341 363.683C289.039 363.683 288.769 363.749 288.531 363.88C288.299 364.006 288.105 364.191 287.948 364.433C287.792 364.675 287.671 364.968 287.585 365.311C287.504 365.649 287.464 366.03 287.464 366.454V366.757C287.464 367.116 287.512 367.449 287.608 367.757C287.709 368.059 287.855 368.324 288.047 368.552C288.239 368.779 288.471 368.958 288.743 369.089C289.016 369.215 289.326 369.278 289.675 369.278C290.114 369.278 290.505 369.19 290.848 369.013C291.191 368.837 291.489 368.587 291.742 368.264L292.703 369.195C292.526 369.453 292.297 369.7 292.014 369.937C291.731 370.169 291.386 370.359 290.977 370.505C290.573 370.651 290.104 370.724 289.569 370.724Z" fill="#0023D2"/>
<path d="M232.152 257.212H236.051C236.889 257.212 237.603 257.339 238.194 257.591C238.784 257.843 239.236 258.217 239.549 258.712C239.867 259.201 240.026 259.807 240.026 260.529C240.026 261.079 239.925 261.563 239.723 261.982C239.521 262.401 239.236 262.754 238.867 263.042C238.499 263.325 238.06 263.544 237.55 263.701L236.975 263.981H233.469L233.454 262.474H236.081C236.535 262.474 236.914 262.394 237.217 262.232C237.52 262.071 237.747 261.851 237.898 261.573C238.055 261.291 238.133 260.973 238.133 260.619C238.133 260.236 238.057 259.903 237.906 259.62C237.759 259.332 237.532 259.113 237.224 258.961C236.917 258.805 236.525 258.727 236.051 258.727H234.052V268.236H232.152V257.212ZM238.443 268.236L235.854 263.284L237.845 263.277L240.472 268.138V268.236H238.443ZM245.348 268.387C244.743 268.387 244.195 268.289 243.705 268.092C243.221 267.89 242.807 267.61 242.464 267.252C242.125 266.893 241.865 266.472 241.684 265.987C241.502 265.503 241.411 264.98 241.411 264.42V264.117C241.411 263.476 241.505 262.896 241.691 262.376C241.878 261.856 242.138 261.412 242.471 261.043C242.804 260.67 243.198 260.385 243.652 260.188C244.107 259.991 244.599 259.893 245.129 259.893C245.714 259.893 246.226 259.991 246.666 260.188C247.105 260.385 247.468 260.662 247.756 261.021C248.049 261.374 248.266 261.795 248.407 262.285C248.553 262.775 248.626 263.315 248.626 263.905V264.685H242.297V263.375H246.825V263.231C246.814 262.903 246.749 262.595 246.628 262.308C246.512 262.02 246.332 261.788 246.09 261.611C245.848 261.435 245.525 261.346 245.121 261.346C244.818 261.346 244.548 261.412 244.311 261.543C244.079 261.669 243.884 261.854 243.728 262.096C243.572 262.338 243.45 262.631 243.365 262.974C243.284 263.312 243.243 263.693 243.243 264.117V264.42C243.243 264.778 243.291 265.112 243.387 265.42C243.488 265.722 243.635 265.987 243.826 266.214C244.018 266.442 244.25 266.621 244.523 266.752C244.796 266.878 245.106 266.941 245.454 266.941C245.893 266.941 246.284 266.853 246.628 266.676C246.971 266.5 247.269 266.25 247.521 265.927L248.483 266.858C248.306 267.115 248.076 267.363 247.794 267.6C247.511 267.832 247.165 268.021 246.756 268.168C246.353 268.314 245.883 268.387 245.348 268.387ZM255.039 271.386V261.672L255.251 260.044H256.879V271.386H255.039ZM249.717 264.223V264.064C249.717 263.443 249.787 262.878 249.929 262.368C250.07 261.854 250.28 261.412 250.557 261.043C250.835 260.675 251.173 260.392 251.572 260.195C251.97 259.994 252.43 259.893 252.95 259.893C253.454 259.893 253.893 259.989 254.267 260.18C254.646 260.372 254.964 260.647 255.221 261.006C255.483 261.359 255.693 261.78 255.849 262.27C256.006 262.76 256.119 263.305 256.19 263.905V264.413C256.124 264.998 256.013 265.533 255.857 266.018C255.7 266.502 255.491 266.921 255.228 267.274C254.966 267.628 254.646 267.903 254.267 268.1C253.888 268.291 253.444 268.387 252.934 268.387C252.425 268.387 251.97 268.284 251.572 268.077C251.173 267.87 250.835 267.58 250.557 267.206C250.285 266.828 250.075 266.386 249.929 265.881C249.787 265.372 249.717 264.819 249.717 264.223ZM251.541 264.064V264.223C251.541 264.597 251.574 264.948 251.64 265.276C251.71 265.599 251.821 265.886 251.973 266.139C252.124 266.386 252.316 266.58 252.548 266.722C252.781 266.863 253.061 266.934 253.389 266.934C253.818 266.934 254.169 266.84 254.441 266.654C254.719 266.467 254.931 266.217 255.077 265.904C255.228 265.586 255.334 265.235 255.395 264.852V263.481C255.36 263.184 255.297 262.906 255.206 262.648C255.115 262.386 254.989 262.159 254.827 261.967C254.671 261.77 254.474 261.619 254.237 261.513C254.004 261.402 253.727 261.346 253.404 261.346C253.076 261.346 252.793 261.417 252.556 261.558C252.319 261.7 252.124 261.896 251.973 262.149C251.827 262.396 251.718 262.684 251.647 263.012C251.577 263.34 251.541 263.691 251.541 264.064ZM263.761 266.305V260.044H265.593V268.236H263.867L263.761 266.305ZM264.019 264.602L264.632 264.587C264.632 265.137 264.571 265.644 264.45 266.108C264.329 266.568 264.142 266.969 263.89 267.312C263.637 267.65 263.314 267.915 262.921 268.107C262.527 268.294 262.055 268.387 261.505 268.387C261.106 268.387 260.74 268.329 260.407 268.213C260.074 268.097 259.786 267.918 259.544 267.676C259.307 267.433 259.123 267.118 258.991 266.729C258.86 266.341 258.794 265.876 258.794 265.336V260.044H260.619V265.351C260.619 265.649 260.654 265.899 260.725 266.101C260.796 266.298 260.892 266.457 261.013 266.578C261.134 266.699 261.275 266.785 261.437 266.835C261.598 266.886 261.77 266.911 261.952 266.911C262.472 266.911 262.88 266.81 263.178 266.608C263.481 266.401 263.696 266.124 263.822 265.775C263.953 265.427 264.019 265.036 264.019 264.602ZM271.075 268.387C270.469 268.387 269.921 268.289 269.432 268.092C268.947 267.89 268.533 267.61 268.19 267.252C267.852 266.893 267.592 266.472 267.41 265.987C267.229 265.503 267.138 264.98 267.138 264.42V264.117C267.138 263.476 267.231 262.896 267.418 262.376C267.605 261.856 267.865 261.412 268.198 261.043C268.531 260.67 268.925 260.385 269.379 260.188C269.833 259.991 270.325 259.893 270.855 259.893C271.441 259.893 271.953 259.991 272.392 260.188C272.831 260.385 273.195 260.662 273.482 261.021C273.775 261.374 273.992 261.795 274.134 262.285C274.28 262.775 274.353 263.315 274.353 263.905V264.685H268.024V263.375H272.551V263.231C272.541 262.903 272.475 262.595 272.354 262.308C272.238 262.02 272.059 261.788 271.817 261.611C271.575 261.435 271.251 261.346 270.848 261.346C270.545 261.346 270.275 261.412 270.038 261.543C269.805 261.669 269.611 261.854 269.455 262.096C269.298 262.338 269.177 262.631 269.091 262.974C269.01 263.312 268.97 263.693 268.97 264.117V264.42C268.97 264.778 269.018 265.112 269.114 265.42C269.215 265.722 269.361 265.987 269.553 266.214C269.745 266.442 269.977 266.621 270.25 266.752C270.522 266.878 270.833 266.941 271.181 266.941C271.62 266.941 272.011 266.853 272.354 266.676C272.698 266.5 272.995 266.25 273.248 265.927L274.209 266.858C274.033 267.115 273.803 267.363 273.52 267.6C273.238 267.832 272.892 268.021 272.483 268.168C272.079 268.314 271.61 268.387 271.075 268.387ZM280.372 266.018C280.372 265.836 280.327 265.672 280.236 265.526C280.145 265.374 279.971 265.238 279.713 265.117C279.461 264.996 279.088 264.884 278.593 264.784C278.159 264.688 277.76 264.574 277.397 264.443C277.038 264.307 276.73 264.143 276.473 263.951C276.216 263.759 276.016 263.532 275.875 263.269C275.734 263.007 275.663 262.704 275.663 262.361C275.663 262.028 275.736 261.712 275.882 261.414C276.029 261.117 276.238 260.854 276.511 260.627C276.783 260.4 277.114 260.221 277.503 260.089C277.896 259.958 278.335 259.893 278.82 259.893C279.506 259.893 280.095 260.009 280.584 260.241C281.079 260.468 281.457 260.778 281.72 261.172C281.982 261.561 282.113 262 282.113 262.489H280.289C280.289 262.272 280.233 262.071 280.122 261.884C280.016 261.692 279.855 261.538 279.638 261.422C279.421 261.301 279.148 261.24 278.82 261.24C278.507 261.24 278.247 261.291 278.04 261.392C277.838 261.488 277.687 261.614 277.586 261.77C277.49 261.927 277.442 262.098 277.442 262.285C277.442 262.421 277.467 262.545 277.518 262.656C277.573 262.762 277.664 262.86 277.79 262.951C277.917 263.037 278.088 263.118 278.305 263.194C278.527 263.269 278.805 263.343 279.138 263.413C279.764 263.544 280.301 263.713 280.751 263.92C281.205 264.122 281.553 264.385 281.795 264.708C282.038 265.026 282.159 265.43 282.159 265.919C282.159 266.283 282.081 266.616 281.924 266.919C281.773 267.216 281.551 267.476 281.258 267.698C280.965 267.915 280.614 268.085 280.206 268.206C279.802 268.327 279.348 268.387 278.843 268.387C278.101 268.387 277.472 268.256 276.958 267.994C276.443 267.726 276.052 267.385 275.784 266.972C275.522 266.553 275.39 266.119 275.39 265.669H277.154C277.175 266.008 277.268 266.278 277.435 266.479C277.606 266.676 277.818 266.82 278.071 266.911C278.328 266.997 278.593 267.04 278.865 267.04C279.194 267.04 279.469 266.997 279.691 266.911C279.913 266.82 280.082 266.699 280.198 266.548C280.314 266.391 280.372 266.214 280.372 266.018ZM287.512 260.044V261.377H282.893V260.044H287.512ZM284.226 258.038H286.05V265.972C286.05 266.225 286.086 266.419 286.156 266.555C286.232 266.686 286.336 266.775 286.467 266.82C286.598 266.866 286.752 266.888 286.929 266.888C287.055 266.888 287.176 266.881 287.292 266.866C287.408 266.85 287.502 266.835 287.572 266.82L287.58 268.213C287.428 268.259 287.252 268.299 287.05 268.334C286.853 268.37 286.626 268.387 286.368 268.387C285.95 268.387 285.579 268.314 285.255 268.168C284.932 268.016 284.68 267.772 284.498 267.433C284.317 267.095 284.226 266.646 284.226 266.086V258.038Z" fill="#0023D2"/>
<path d="M405.816 171.932H409.715C410.553 171.932 411.267 172.058 411.858 172.31C412.448 172.562 412.9 172.936 413.213 173.431C413.531 173.92 413.69 174.526 413.69 175.248C413.69 175.798 413.589 176.282 413.387 176.701C413.185 177.12 412.9 177.474 412.531 177.761C412.163 178.044 411.724 178.264 411.214 178.42L410.639 178.7H407.133L407.118 177.193H409.745C410.2 177.193 410.578 177.113 410.881 176.951C411.184 176.79 411.411 176.57 411.562 176.292C411.719 176.01 411.797 175.692 411.797 175.339C411.797 174.955 411.721 174.622 411.57 174.339C411.423 174.051 411.196 173.832 410.888 173.68C410.581 173.524 410.189 173.446 409.715 173.446H407.716V182.955H405.816V171.932ZM412.107 182.955L409.518 178.004L411.509 177.996L414.136 182.857V182.955H412.107ZM419.012 183.106C418.407 183.106 417.859 183.008 417.369 182.811C416.885 182.609 416.471 182.329 416.128 181.971C415.79 181.612 415.53 181.191 415.348 180.706C415.166 180.222 415.075 179.699 415.075 179.139V178.836C415.075 178.195 415.169 177.615 415.355 177.095C415.542 176.575 415.802 176.131 416.135 175.763C416.468 175.389 416.862 175.104 417.316 174.907C417.771 174.71 418.263 174.612 418.793 174.612C419.378 174.612 419.891 174.71 420.33 174.907C420.769 175.104 421.132 175.381 421.42 175.74C421.713 176.093 421.93 176.515 422.071 177.004C422.217 177.494 422.291 178.034 422.291 178.624V179.404H415.961V178.094H420.489V177.951C420.479 177.622 420.413 177.315 420.292 177.027C420.176 176.739 419.997 176.507 419.754 176.33C419.512 176.154 419.189 176.065 418.785 176.065C418.482 176.065 418.212 176.131 417.975 176.262C417.743 176.388 417.549 176.573 417.392 176.815C417.236 177.057 417.114 177.35 417.029 177.693C416.948 178.031 416.908 178.412 416.908 178.836V179.139C416.908 179.498 416.955 179.831 417.051 180.139C417.152 180.441 417.299 180.706 417.49 180.934C417.682 181.161 417.914 181.34 418.187 181.471C418.46 181.597 418.77 181.66 419.118 181.66C419.557 181.66 419.949 181.572 420.292 181.395C420.635 181.219 420.933 180.969 421.185 180.646L422.147 181.577C421.97 181.835 421.74 182.082 421.458 182.319C421.175 182.551 420.829 182.741 420.42 182.887C420.017 183.033 419.547 183.106 419.012 183.106ZM428.332 181.312V177.405C428.332 177.113 428.279 176.86 428.173 176.648C428.067 176.436 427.906 176.272 427.689 176.156C427.477 176.04 427.209 175.982 426.886 175.982C426.588 175.982 426.331 176.033 426.114 176.133C425.897 176.234 425.728 176.371 425.607 176.542C425.486 176.714 425.425 176.908 425.425 177.125H423.608C423.608 176.802 423.686 176.489 423.843 176.186C423.999 175.884 424.226 175.614 424.524 175.376C424.822 175.139 425.178 174.952 425.592 174.816C426.005 174.68 426.47 174.612 426.985 174.612C427.6 174.612 428.146 174.715 428.62 174.922C429.099 175.129 429.476 175.442 429.748 175.861C430.026 176.275 430.165 176.795 430.165 177.421V181.062C430.165 181.436 430.19 181.771 430.24 182.069C430.296 182.362 430.374 182.617 430.475 182.834V182.955H428.605C428.519 182.758 428.451 182.508 428.4 182.206C428.355 181.898 428.332 181.6 428.332 181.312ZM428.597 177.973L428.612 179.101H427.303C426.964 179.101 426.667 179.134 426.409 179.2C426.152 179.26 425.937 179.351 425.766 179.472C425.594 179.593 425.465 179.74 425.38 179.911C425.294 180.083 425.251 180.277 425.251 180.494C425.251 180.711 425.301 180.911 425.402 181.093C425.503 181.269 425.65 181.408 425.841 181.509C426.038 181.61 426.275 181.66 426.553 181.66C426.927 181.66 427.252 181.585 427.53 181.433C427.812 181.277 428.034 181.088 428.196 180.865C428.358 180.638 428.443 180.424 428.453 180.222L429.044 181.032C428.983 181.239 428.88 181.461 428.734 181.698C428.587 181.935 428.395 182.163 428.158 182.38C427.926 182.592 427.646 182.766 427.318 182.902C426.995 183.038 426.621 183.106 426.197 183.106C425.662 183.106 425.185 183 424.766 182.788C424.347 182.571 424.019 182.281 423.782 181.918C423.545 181.549 423.426 181.133 423.426 180.669C423.426 180.235 423.507 179.851 423.668 179.518C423.835 179.18 424.077 178.897 424.395 178.67C424.718 178.443 425.112 178.271 425.576 178.155C426.041 178.034 426.571 177.973 427.166 177.973H428.597ZM436.668 180.737C436.668 180.555 436.623 180.391 436.532 180.245C436.441 180.093 436.267 179.957 436.009 179.836C435.757 179.715 435.384 179.604 434.889 179.503C434.455 179.407 434.056 179.293 433.693 179.162C433.334 179.026 433.026 178.862 432.769 178.67C432.512 178.478 432.312 178.251 432.171 177.988C432.03 177.726 431.959 177.423 431.959 177.08C431.959 176.747 432.032 176.431 432.178 176.133C432.325 175.836 432.534 175.573 432.807 175.346C433.079 175.119 433.41 174.94 433.799 174.809C434.192 174.677 434.631 174.612 435.116 174.612C435.802 174.612 436.39 174.728 436.88 174.96C437.375 175.187 437.753 175.498 438.016 175.891C438.278 176.28 438.409 176.719 438.409 177.209H436.585C436.585 176.992 436.529 176.79 436.418 176.603C436.312 176.411 436.151 176.257 435.934 176.141C435.717 176.02 435.444 175.959 435.116 175.959C434.803 175.959 434.543 176.01 434.336 176.111C434.134 176.207 433.983 176.333 433.882 176.489C433.786 176.646 433.738 176.817 433.738 177.004C433.738 177.14 433.763 177.264 433.814 177.375C433.869 177.481 433.96 177.58 434.086 177.67C434.213 177.756 434.384 177.837 434.601 177.913C434.823 177.988 435.101 178.062 435.434 178.132C436.06 178.264 436.597 178.433 437.047 178.64C437.501 178.841 437.849 179.104 438.091 179.427C438.334 179.745 438.455 180.149 438.455 180.638C438.455 181.002 438.377 181.335 438.22 181.638C438.069 181.935 437.847 182.195 437.554 182.418C437.261 182.635 436.91 182.804 436.502 182.925C436.098 183.046 435.643 183.106 435.139 183.106C434.397 183.106 433.768 182.975 433.254 182.713C432.739 182.445 432.348 182.105 432.08 181.691C431.818 181.272 431.686 180.838 431.686 180.388H433.45C433.471 180.727 433.564 180.997 433.73 181.199C433.902 181.395 434.114 181.539 434.366 181.63C434.624 181.716 434.889 181.759 435.161 181.759C435.49 181.759 435.765 181.716 435.987 181.63C436.209 181.539 436.378 181.418 436.494 181.267C436.61 181.11 436.668 180.934 436.668 180.737ZM439.704 178.95V178.776C439.704 178.185 439.79 177.638 439.962 177.133C440.133 176.623 440.38 176.181 440.703 175.808C441.032 175.429 441.43 175.137 441.9 174.93C442.374 174.718 442.909 174.612 443.505 174.612C444.105 174.612 444.64 174.718 445.11 174.93C445.584 175.137 445.986 175.429 446.314 175.808C446.642 176.181 446.892 176.623 447.063 177.133C447.235 177.638 447.321 178.185 447.321 178.776V178.95C447.321 179.54 447.235 180.088 447.063 180.593C446.892 181.098 446.642 181.539 446.314 181.918C445.986 182.291 445.587 182.584 445.117 182.796C444.648 183.003 444.116 183.106 443.52 183.106C442.919 183.106 442.382 183.003 441.907 182.796C441.438 182.584 441.039 182.291 440.711 181.918C440.383 181.539 440.133 181.098 439.962 180.593C439.79 180.088 439.704 179.54 439.704 178.95ZM441.529 178.776V178.95C441.529 179.318 441.567 179.667 441.642 179.995C441.718 180.323 441.837 180.611 441.998 180.858C442.16 181.105 442.367 181.3 442.619 181.441C442.871 181.582 443.172 181.653 443.52 181.653C443.858 181.653 444.151 181.582 444.398 181.441C444.651 181.3 444.857 181.105 445.019 180.858C445.181 180.611 445.299 180.323 445.375 179.995C445.456 179.667 445.496 179.318 445.496 178.95V178.776C445.496 178.412 445.456 178.069 445.375 177.746C445.299 177.418 445.178 177.128 445.011 176.875C444.85 176.623 444.643 176.426 444.391 176.285C444.143 176.139 443.848 176.065 443.505 176.065C443.162 176.065 442.864 176.139 442.611 176.285C442.364 176.426 442.16 176.623 441.998 176.875C441.837 177.128 441.718 177.418 441.642 177.746C441.567 178.069 441.529 178.412 441.529 178.776ZM450.659 176.512V182.955H448.835V174.763H450.553L450.659 176.512ZM450.334 178.556L449.743 178.549C449.748 177.968 449.829 177.436 449.986 176.951C450.147 176.467 450.369 176.05 450.652 175.702C450.94 175.354 451.283 175.086 451.682 174.899C452.08 174.708 452.524 174.612 453.014 174.612C453.408 174.612 453.764 174.667 454.082 174.778C454.405 174.884 454.68 175.058 454.907 175.301C455.139 175.543 455.316 175.858 455.437 176.247C455.558 176.631 455.619 177.103 455.619 177.663V182.955H453.786V177.655C453.786 177.262 453.728 176.951 453.612 176.724C453.501 176.492 453.337 176.328 453.12 176.232C452.908 176.131 452.643 176.081 452.325 176.081C452.012 176.081 451.732 176.146 451.485 176.277C451.237 176.409 451.028 176.588 450.856 176.815C450.69 177.042 450.561 177.304 450.47 177.602C450.379 177.9 450.334 178.218 450.334 178.556Z" fill="#0023D2"/>
<path d="M644.135 190.597H641.266V189.09H644.135C644.635 189.09 645.039 189.009 645.347 188.848C645.655 188.686 645.879 188.464 646.021 188.182C646.167 187.894 646.24 187.566 646.24 187.197C646.24 186.849 646.167 186.524 646.021 186.221C645.879 185.913 645.655 185.665 645.347 185.479C645.039 185.292 644.635 185.199 644.135 185.199H641.849V194.708H639.949V183.684H644.135C644.988 183.684 645.713 183.836 646.308 184.139C646.909 184.436 647.366 184.85 647.679 185.38C647.992 185.905 648.148 186.506 648.148 187.182C648.148 187.894 647.992 188.505 647.679 189.014C647.366 189.524 646.909 189.915 646.308 190.188C645.713 190.46 644.988 190.597 644.135 190.597ZM651.623 183.079V194.708H649.791V183.079H651.623ZM658.24 193.065V189.158C658.24 188.866 658.187 188.613 658.081 188.401C657.975 188.189 657.814 188.025 657.597 187.909C657.385 187.793 657.117 187.735 656.794 187.735C656.497 187.735 656.239 187.785 656.022 187.886C655.805 187.987 655.636 188.124 655.515 188.295C655.394 188.467 655.333 188.661 655.333 188.878H653.516C653.516 188.555 653.594 188.242 653.751 187.939C653.907 187.636 654.134 187.366 654.432 187.129C654.73 186.892 655.086 186.705 655.5 186.569C655.914 186.433 656.378 186.365 656.893 186.365C657.509 186.365 658.054 186.468 658.528 186.675C659.008 186.882 659.384 187.195 659.656 187.614C659.934 188.028 660.073 188.548 660.073 189.173V192.815C660.073 193.189 660.098 193.524 660.148 193.822C660.204 194.115 660.282 194.37 660.383 194.587V194.708H658.513C658.427 194.511 658.359 194.261 658.309 193.958C658.263 193.65 658.24 193.353 658.24 193.065ZM658.505 189.726L658.521 190.854H657.211C656.873 190.854 656.575 190.887 656.317 190.953C656.06 191.013 655.845 191.104 655.674 191.225C655.502 191.346 655.374 191.493 655.288 191.664C655.202 191.836 655.159 192.03 655.159 192.247C655.159 192.464 655.209 192.664 655.31 192.845C655.411 193.022 655.558 193.161 655.75 193.262C655.946 193.363 656.184 193.413 656.461 193.413C656.835 193.413 657.16 193.338 657.438 193.186C657.721 193.03 657.943 192.84 658.104 192.618C658.266 192.391 658.351 192.177 658.362 191.975L658.952 192.785C658.892 192.992 658.788 193.214 658.642 193.451C658.495 193.688 658.304 193.915 658.066 194.132C657.834 194.344 657.554 194.519 657.226 194.655C656.903 194.791 656.529 194.859 656.105 194.859C655.57 194.859 655.093 194.753 654.674 194.541C654.256 194.324 653.927 194.034 653.69 193.671C653.453 193.302 653.334 192.886 653.334 192.421C653.334 191.987 653.415 191.604 653.577 191.271C653.743 190.932 653.985 190.65 654.303 190.423C654.626 190.195 655.02 190.024 655.485 189.908C655.949 189.787 656.479 189.726 657.074 189.726H658.505ZM663.79 188.265V194.708H661.965V186.516H663.684L663.79 188.265ZM663.464 190.309L662.874 190.301C662.879 189.721 662.96 189.189 663.116 188.704C663.278 188.219 663.5 187.803 663.782 187.455C664.07 187.106 664.413 186.839 664.812 186.652C665.211 186.46 665.655 186.365 666.145 186.365C666.538 186.365 666.894 186.42 667.212 186.531C667.535 186.637 667.81 186.811 668.037 187.053C668.27 187.296 668.446 187.611 668.567 188C668.689 188.383 668.749 188.855 668.749 189.416V194.708H666.917V189.408C666.917 189.014 666.859 188.704 666.743 188.477C666.632 188.245 666.468 188.081 666.251 187.985C666.039 187.884 665.774 187.833 665.456 187.833C665.143 187.833 664.863 187.899 664.615 188.03C664.368 188.161 664.159 188.341 663.987 188.568C663.82 188.795 663.692 189.057 663.601 189.355C663.51 189.653 663.464 189.971 663.464 190.309Z" fill="#0023D2"/>
<path opacity="0.1" d="M2.24306 281.682C-0.752558 279.693 -0.746966 276.478 2.25555 274.5L42.6898 247.86C45.6923 245.882 50.5548 245.89 53.5504 247.879L93.8918 274.655C96.8874 276.644 96.8818 279.859 93.8793 281.837L53.445 308.477C50.4425 310.455 45.5801 310.447 42.5844 308.458L2.24306 281.682Z" fill="#0023D2"/>
<path d="M0.0207706 263.321C-0.00699023 263.042 -0.00692024 262.762 0.0209771 262.483C-0.00698843 262.204 -0.00698827 261.923 0.0209742 261.644C-0.0069198 261.365 -0.00698701 261.085 0.020769 260.806C-0.00699264 260.527 -0.00692221 260.248 0.0209766 259.969C-0.00699001 259.689 -0.00698832 259.409 0.0209783 259.129C-0.013439 258.785 -0.00549974 258.439 0.0447881 258.096C0.0334547 257.882 0.0384847 257.668 0.0598764 257.454C0.0319311 257.175 0.0319096 256.894 0.0598084 256.615C0.0319315 256.336 0.031931 256.056 0.0598032 255.777C0.0319324 255.498 0.0319339 255.217 0.0598043 254.938C0.031955 254.66 0.0319336 254.38 0.0597364 254.101C0.0319089 253.822 0.0319566 253.542 0.0598765 253.263C0.0319571 252.984 0.0319119 252.703 0.0597375 252.424C0.01794 252.005 0.0390284 251.584 0.122988 251.167C0.0389741 250.75 0.0179186 250.328 0.0598084 249.909C-0.111372 248.195 0.768625 246.443 2.69897 245.136L41.7351 218.712C45.276 216.316 51.0101 216.326 54.5427 218.735L93.4898 245.295C95.4102 246.604 96.2846 248.353 96.1139 250.062C96.1558 250.481 96.1348 250.903 96.0508 251.32C96.1347 251.737 96.1558 252.158 96.114 252.578C96.1418 252.857 96.1418 253.137 96.1139 253.416C96.1418 253.695 96.1418 253.975 96.114 254.254C96.1418 254.533 96.1418 254.813 96.1139 255.092C96.1418 255.371 96.1418 255.651 96.1139 255.93C96.1418 256.209 96.1418 256.489 96.1139 256.768C96.1418 257.048 96.1418 257.328 96.1139 257.607C96.1483 257.951 96.1403 258.297 96.09 258.64C96.1014 258.854 96.0964 259.068 96.075 259.282C96.1029 259.562 96.1029 259.842 96.075 260.122C96.1029 260.401 96.1029 260.681 96.0752 260.96C96.1029 261.238 96.1029 261.518 96.075 261.797C96.1029 262.077 96.1029 262.357 96.075 262.637C96.1029 262.916 96.1029 263.195 96.0752 263.474C96.1029 263.753 96.1029 264.033 96.075 264.312C96.1029 264.591 96.1029 264.871 96.0751 265.15C96.1029 265.429 96.1029 265.709 96.075 265.988C96.1029 266.268 96.1029 266.548 96.075 266.827C96.0992 267.069 96.1024 267.312 96.0847 267.554C96.3057 269.303 95.4299 271.102 93.458 272.437L54.4219 298.861C50.881 301.257 45.1469 301.247 41.6143 298.838L2.66722 272.278C0.788727 270.997 -0.0889535 269.296 0.0334024 267.623C-0.00648214 267.307 -0.0106441 266.99 0.0209111 266.674C-0.00698974 266.395 -0.00696575 266.114 0.0209791 265.835C-0.00694291 265.556 -0.00698876 265.276 0.020838 264.997C-0.00699001 264.718 -0.00694193 264.438 0.0209782 264.159C-0.0069204 263.88 -0.00698843 263.6 0.0207706 263.321Z" fill="url(#paint0_linear_17508_41658)"/>
<path d="M2.24306 253.082C-0.752558 251.045 -0.746967 247.751 2.25555 245.725L42.6898 218.436C45.6923 216.409 50.5548 216.418 53.5504 218.455L93.8918 245.884C96.8874 247.921 96.8818 251.215 93.8793 253.241L53.445 280.531C50.4425 282.557 45.5801 282.549 42.5844 280.512L2.24306 253.082Z" fill="#0023D2"/>
<path d="M38.7656 255.685C38.7656 255.685 38.7582 251.175 48.8368 251.157C58.9155 251.139 58.9229 255.649 58.9229 255.649M55.3027 243.128C55.3068 245.619 52.4093 247.643 48.831 247.649C45.2527 247.656 42.3485 245.642 42.3444 243.151C42.3403 240.66 45.2378 238.636 48.8161 238.629C52.3944 238.623 55.2986 240.637 55.3027 243.128Z" stroke="white" stroke-width="1.41101" stroke-linecap="round" stroke-linejoin="round"/>
<path d="M48.6186 343.519C48.3159 343.216 47.825 343.216 47.5222 343.519L42.5883 348.453C42.2856 348.756 42.2856 349.247 42.5883 349.549C42.8911 349.852 43.382 349.852 43.6847 349.549L48.0704 345.164L52.456 349.549C52.7588 349.852 53.2497 349.852 53.5524 349.55C53.8552 349.247 53.8552 348.756 53.5525 348.453L48.6186 343.519ZM215.531 366.551C215.959 366.551 216.306 366.203 216.306 365.775C216.306 365.347 215.959 365 215.531 365L215.531 366.551ZM47.2951 344.067L47.2951 359.573L48.8456 359.573L48.8457 344.067L47.2951 344.067ZM54.2726 366.551L215.531 366.551L215.531 365L54.2726 365L54.2726 366.551ZM47.2951 359.573C47.295 363.427 50.419 366.551 54.2726 366.551L54.2726 365C51.2753 365 48.8456 362.57 48.8456 359.573L47.2951 359.573Z" fill="#0023D2"/>
<path d="M221.734 263.438H110.094" stroke="#0023D2" stroke-width="1.55056" stroke-linecap="round"/>
<path d="M392.292 178.157H364.382C360.957 178.157 358.18 175.38 358.18 171.955V120.787C358.18 117.361 360.957 114.584 364.382 114.584H440.359" stroke="#0023D2" stroke-width="1.55056" stroke-linecap="round"/>
<path d="M654.334 206.067L654.334 258.787C654.334 262.212 651.557 264.989 648.131 264.989L596.187 264.989" stroke="#0023D2" stroke-width="1.55056" stroke-linecap="round"/>
<path d="M327.172 365.775L526.419 365.775C529.844 365.775 532.621 362.998 532.621 359.573L532.621 318.483" stroke="#0023D2" stroke-width="1.55056" stroke-linecap="round"/>
<path d="M462.615 262.89C462.918 263.193 462.918 263.684 462.615 263.986L457.681 268.92C457.378 269.223 456.887 269.223 456.585 268.92C456.282 268.617 456.282 268.127 456.585 267.824L460.97 263.438L456.585 259.053C456.282 258.75 456.282 258.259 456.585 257.956C456.887 257.653 457.378 257.653 457.681 257.956L462.615 262.89ZM325.617 264.213C325.189 264.213 324.842 263.866 324.842 263.438C324.842 263.01 325.189 262.663 325.617 262.663L325.617 264.213ZM325.617 262.663L462.067 262.663L462.067 264.213L325.617 264.213L325.617 262.663Z" fill="#0023D2"/>
<path d="M468.273 177.382C467.845 177.382 467.498 177.729 467.498 178.157C467.498 178.585 467.845 178.933 468.273 178.933L468.273 177.382ZM531.298 208.166C531.601 208.469 532.092 208.469 532.395 208.166L537.329 203.232C537.631 202.93 537.631 202.439 537.329 202.136C537.026 201.833 536.535 201.833 536.232 202.136L531.846 206.522L527.461 202.136C527.158 201.833 526.667 201.833 526.364 202.136C526.062 202.439 526.062 202.93 526.364 203.232L531.298 208.166ZM468.273 178.933L525.644 178.933L525.644 177.382L468.273 177.382L468.273 178.933ZM531.071 184.36L531.071 207.618L532.622 207.618L532.622 184.36L531.071 184.36ZM525.644 178.933C528.641 178.933 531.071 181.362 531.071 184.36L532.622 184.36C532.622 180.506 529.498 177.382 525.644 177.382L525.644 178.933Z" fill="#0023D2"/>
<path d="M639.609 115.36C640.037 115.36 640.384 115.012 640.384 114.584C640.384 114.156 640.037 113.809 639.609 113.809L639.609 115.36ZM609.6 114.036C609.297 114.339 609.297 114.83 609.6 115.132L614.534 120.066C614.837 120.369 615.328 120.369 615.631 120.066C615.933 119.764 615.933 119.273 615.631 118.97L611.245 114.584L615.631 110.199C615.933 109.896 615.933 109.405 615.631 109.102C615.328 108.799 614.837 108.799 614.534 109.102L609.6 114.036ZM630.403 114.584L630.403 113.809L630.403 114.584ZM610.148 115.36L630.403 115.36L630.403 113.809L610.148 113.809L610.148 115.36ZM630.403 115.36L639.609 115.36L639.609 113.809L630.403 113.809L630.403 115.36Z" fill="#0023D2"/>
<path d="M653.563 128.539L653.562 147.34L653.562 175.056" stroke="#0023D2" stroke-width="1.55056" stroke-linecap="round"/>
<rect x="476.023" y="215.371" width="111.427" height="96.427" rx="6.20225" fill="white"/>
<path d="M523.176 267.776V269.584H516.535V267.776H523.176ZM517.171 256.356V269.584H514.89V256.356H517.171ZM533.224 267.776V269.584H526.583V267.776H533.224ZM527.219 256.356V269.584H524.939V256.356H527.219ZM535.914 256.356H537.949L541.774 266.559L545.589 256.356H547.625L542.573 269.584H540.956L535.914 256.356ZM534.987 256.356H536.922L537.258 265.187V269.584H534.987V256.356ZM546.616 256.356H548.56V269.584H546.28V265.187L546.616 256.356Z" fill="#0023D2"/>
<path d="M571.381 220.022L580.685 225.221V235.619L571.381 240.818L562.078 235.619V225.221L571.381 220.022Z" fill="#F9BEBE"/>
<path d="M571.379 223.853L577.399 227.137V233.704L571.379 236.987L565.359 233.704V227.137L571.379 223.853Z" fill="#F15C5C"/>
<path d="M571.019 231.514L570.289 227.136H572.478L571.748 231.514H571.019Z" fill="white"/>
<circle cx="571.376" cy="232.883" r="0.820886" fill="white"/>
<rect x="579.133" y="207.618" width="15.5056" height="15.5056" rx="7.75281" fill="#0023D2"/>
<path d="M589.601 218.1V219.118H584.428V218.244L586.94 215.504C587.216 215.193 587.433 214.924 587.592 214.698C587.751 214.472 587.862 214.269 587.926 214.088C587.993 213.905 588.027 213.726 588.027 213.553C588.027 213.309 587.981 213.096 587.889 212.912C587.801 212.725 587.67 212.578 587.497 212.472C587.324 212.363 587.113 212.308 586.866 212.308C586.58 212.308 586.34 212.37 586.145 212.493C585.951 212.617 585.804 212.788 585.705 213.007C585.607 213.223 585.557 213.47 585.557 213.749H584.28C584.28 213.301 584.382 212.891 584.587 212.52C584.792 212.145 585.089 211.848 585.478 211.629C585.866 211.407 586.334 211.296 586.882 211.296C587.398 211.296 587.836 211.382 588.196 211.555C588.557 211.728 588.831 211.974 589.018 212.292C589.209 212.61 589.304 212.986 589.304 213.421C589.304 213.661 589.265 213.899 589.187 214.136C589.11 214.373 588.998 214.61 588.854 214.846C588.712 215.08 588.544 215.315 588.35 215.551C588.156 215.784 587.942 216.021 587.709 216.261L586.039 218.1H589.601Z" fill="white"/>
<path d="M653.561 103.73L662.865 108.929V119.327L653.561 124.526L644.258 119.327V108.929L653.561 103.73Z" fill="#F9BEBE"/>
<path d="M653.559 107.561L659.579 110.845V117.412L653.559 120.695L647.539 117.412V110.845L653.559 107.561Z" fill="#F15C5C"/>
<path d="M653.198 115.223L652.469 110.845H654.658L653.928 115.223H653.198Z" fill="white"/>
<circle cx="653.555" cy="116.591" r="0.820886" fill="white"/>
<rect x="658.211" y="89.7753" width="15.5056" height="15.5056" rx="7.75281" fill="#0023D2"/>
<path d="M665.006 97.3394H665.769C666.066 97.3394 666.312 97.2881 666.506 97.1857C666.704 97.0832 666.85 96.9419 666.946 96.7617C667.041 96.5815 667.089 96.3748 667.089 96.1416C667.089 95.8978 667.045 95.6894 666.956 95.5163C666.872 95.3396 666.741 95.2036 666.564 95.1082C666.391 95.0128 666.17 94.9651 665.902 94.9651C665.676 94.9651 665.471 95.011 665.287 95.1029C665.107 95.1912 664.964 95.3184 664.858 95.4845C664.752 95.647 664.699 95.8413 664.699 96.0674H663.416C663.416 95.6576 663.524 95.2937 663.74 94.9757C663.955 94.6577 664.248 94.4086 664.619 94.2284C664.994 94.0447 665.414 93.9528 665.881 93.9528C666.379 93.9528 666.813 94.0359 667.184 94.2019C667.559 94.3644 667.85 94.6082 668.059 94.9333C668.267 95.2583 668.372 95.6611 668.372 96.1416C668.372 96.3607 668.32 96.5833 668.218 96.8094C668.115 97.0355 667.963 97.2422 667.762 97.4295C667.561 97.6132 667.31 97.7634 667.009 97.88C666.709 97.993 666.361 98.0495 665.965 98.0495H665.006V97.3394ZM665.006 98.3357V97.6362H665.965C666.418 97.6362 666.803 97.6892 667.121 97.7952C667.442 97.9012 667.704 98.0478 667.905 98.235C668.107 98.4188 668.253 98.629 668.345 98.8657C668.44 99.1024 668.488 99.3533 668.488 99.6183C668.488 99.9787 668.423 100.3 668.292 100.583C668.165 100.862 667.983 101.099 667.746 101.293C667.509 101.487 667.232 101.634 666.914 101.733C666.6 101.832 666.257 101.881 665.886 101.881C665.554 101.881 665.236 101.835 664.932 101.743C664.628 101.652 664.356 101.516 664.116 101.335C663.876 101.152 663.685 100.924 663.543 100.652C663.406 100.376 663.337 100.058 663.337 99.6978H664.614C664.614 99.9274 664.667 100.131 664.773 100.307C664.882 100.48 665.034 100.616 665.229 100.715C665.427 100.814 665.653 100.864 665.907 100.864C666.176 100.864 666.407 100.816 666.601 100.721C666.796 100.625 666.944 100.484 667.047 100.297C667.153 100.109 667.206 99.8833 667.206 99.6183C667.206 99.318 667.147 99.0742 667.031 98.8869C666.914 98.6996 666.748 98.5619 666.532 98.4735C666.317 98.3817 666.063 98.3357 665.769 98.3357H665.006Z" fill="white"/>
<rect x="451.211" y="86.6742" width="151.022" height="53.0112" rx="6.20225" fill="white"/>
<path d="M488.806 114.246H485.362V112.438H488.806C489.405 112.438 489.89 112.342 490.259 112.148C490.629 111.954 490.898 111.687 491.068 111.348C491.244 111.003 491.331 110.609 491.331 110.167C491.331 109.749 491.244 109.359 491.068 108.995C490.898 108.626 490.629 108.329 490.259 108.105C489.89 107.881 489.405 107.769 488.806 107.769H486.062V119.18H483.782V105.952H488.806C489.829 105.952 490.698 106.133 491.413 106.497C492.134 106.854 492.682 107.351 493.058 107.987C493.433 108.617 493.621 109.337 493.621 110.149C493.621 111.003 493.433 111.736 493.058 112.348C492.682 112.959 492.134 113.429 491.413 113.756C490.698 114.083 489.829 114.246 488.806 114.246ZM497.791 105.225V119.18H495.592V105.225H497.791ZM505.732 117.208V112.52C505.732 112.169 505.668 111.866 505.541 111.612C505.414 111.357 505.22 111.16 504.959 111.021C504.705 110.882 504.384 110.812 503.996 110.812C503.639 110.812 503.33 110.873 503.07 110.994C502.809 111.115 502.606 111.279 502.461 111.485C502.316 111.69 502.243 111.924 502.243 112.184H500.062C500.062 111.796 500.156 111.421 500.344 111.058C500.532 110.694 500.804 110.37 501.162 110.085C501.519 109.801 501.946 109.577 502.443 109.413C502.939 109.25 503.497 109.168 504.114 109.168C504.853 109.168 505.508 109.292 506.077 109.54C506.652 109.789 507.104 110.164 507.431 110.667C507.764 111.163 507.93 111.787 507.93 112.538V116.908C507.93 117.357 507.961 117.759 508.021 118.117C508.088 118.468 508.182 118.774 508.303 119.034V119.18H506.059C505.956 118.944 505.874 118.644 505.813 118.28C505.759 117.911 505.732 117.554 505.732 117.208ZM506.05 113.202L506.068 114.555H504.496C504.09 114.555 503.733 114.595 503.424 114.673C503.115 114.746 502.858 114.855 502.652 115.001C502.446 115.146 502.291 115.322 502.188 115.527C502.085 115.733 502.034 115.967 502.034 116.227C502.034 116.487 502.094 116.727 502.216 116.945C502.337 117.157 502.512 117.323 502.743 117.444C502.979 117.566 503.263 117.626 503.597 117.626C504.045 117.626 504.435 117.535 504.769 117.354C505.108 117.166 505.374 116.939 505.568 116.672C505.762 116.4 505.865 116.142 505.877 115.9L506.586 116.872C506.513 117.12 506.389 117.387 506.213 117.672C506.038 117.956 505.807 118.229 505.523 118.489C505.244 118.744 504.908 118.953 504.514 119.116C504.127 119.28 503.678 119.361 503.17 119.361C502.528 119.361 501.955 119.234 501.452 118.98C500.95 118.719 500.556 118.371 500.271 117.935C499.987 117.493 499.844 116.993 499.844 116.436C499.844 115.915 499.941 115.455 500.135 115.055C500.335 114.649 500.626 114.31 501.007 114.037C501.395 113.765 501.867 113.559 502.425 113.42C502.982 113.274 503.618 113.202 504.333 113.202H506.05ZM512.391 111.448V119.18H510.202V109.349H512.264L512.391 111.448ZM512.001 113.901L511.292 113.892C511.298 113.196 511.395 112.557 511.583 111.975C511.776 111.394 512.043 110.894 512.382 110.476C512.727 110.058 513.139 109.737 513.618 109.513C514.096 109.283 514.629 109.168 515.217 109.168C515.689 109.168 516.116 109.234 516.498 109.368C516.885 109.495 517.216 109.704 517.488 109.995C517.767 110.285 517.979 110.664 518.124 111.13C518.269 111.591 518.342 112.157 518.342 112.829V119.18H516.143V112.82C516.143 112.348 516.074 111.975 515.934 111.703C515.801 111.424 515.604 111.227 515.344 111.112C515.09 110.991 514.772 110.93 514.39 110.93C514.014 110.93 513.678 111.009 513.381 111.167C513.085 111.324 512.833 111.539 512.627 111.812C512.428 112.084 512.273 112.399 512.164 112.756C512.055 113.114 512.001 113.495 512.001 113.901ZM522.748 111.448V119.18H520.559V109.349H522.621L522.748 111.448ZM522.358 113.901L521.649 113.892C521.655 113.196 521.752 112.557 521.94 111.975C522.134 111.394 522.4 110.894 522.739 110.476C523.085 110.058 523.496 109.737 523.975 109.513C524.453 109.283 524.986 109.168 525.574 109.168C526.046 109.168 526.473 109.234 526.855 109.368C527.243 109.495 527.573 109.704 527.845 109.995C528.124 110.285 528.336 110.664 528.481 111.13C528.627 111.591 528.699 112.157 528.699 112.829V119.18H526.501V112.82C526.501 112.348 526.431 111.975 526.292 111.703C526.158 111.424 525.962 111.227 525.701 111.112C525.447 110.991 525.129 110.93 524.747 110.93C524.372 110.93 524.036 111.009 523.739 111.167C523.442 111.324 523.191 111.539 522.985 111.812C522.785 112.084 522.63 112.399 522.521 112.756C522.412 113.114 522.358 113.495 522.358 113.901ZM533.278 109.349V119.18H531.08V109.349H533.278ZM530.934 106.769C530.934 106.436 531.043 106.161 531.261 105.942C531.486 105.718 531.794 105.606 532.188 105.606C532.576 105.606 532.882 105.718 533.106 105.942C533.33 106.161 533.442 106.436 533.442 106.769C533.442 107.096 533.33 107.369 533.106 107.587C532.882 107.805 532.576 107.914 532.188 107.914C531.794 107.914 531.486 107.805 531.261 107.587C531.043 107.369 530.934 107.096 530.934 106.769ZM537.848 111.448V119.18H535.659V109.349H537.721L537.848 111.448ZM537.458 113.901L536.749 113.892C536.755 113.196 536.852 112.557 537.04 111.975C537.233 111.394 537.5 110.894 537.839 110.476C538.184 110.058 538.596 109.737 539.075 109.513C539.553 109.283 540.086 109.168 540.674 109.168C541.146 109.168 541.573 109.234 541.955 109.368C542.342 109.495 542.673 109.704 542.945 109.995C543.224 110.285 543.436 110.664 543.581 111.13C543.726 111.591 543.799 112.157 543.799 112.829V119.18H541.601V112.82C541.601 112.348 541.531 111.975 541.392 111.703C541.258 111.424 541.061 111.227 540.801 111.112C540.547 110.991 540.229 110.93 539.847 110.93C539.472 110.93 539.135 111.009 538.839 111.167C538.542 111.324 538.29 111.539 538.084 111.812C537.885 112.084 537.73 112.399 537.621 112.756C537.512 113.114 537.458 113.495 537.458 113.901ZM552.33 109.349H554.32V118.907C554.32 119.792 554.132 120.543 553.757 121.16C553.381 121.778 552.857 122.248 552.185 122.569C551.513 122.896 550.734 123.059 549.85 123.059C549.474 123.059 549.057 123.005 548.596 122.896C548.142 122.787 547.7 122.611 547.27 122.369C546.846 122.133 546.491 121.821 546.207 121.433L547.233 120.143C547.585 120.561 547.972 120.867 548.396 121.06C548.82 121.254 549.265 121.351 549.732 121.351C550.235 121.351 550.662 121.257 551.013 121.07C551.37 120.888 551.646 120.618 551.84 120.261C552.033 119.904 552.13 119.467 552.13 118.953V111.575L552.33 109.349ZM545.653 114.374V114.183C545.653 113.438 545.743 112.759 545.925 112.148C546.107 111.53 546.367 111 546.706 110.558C547.046 110.11 547.458 109.767 547.942 109.531C548.427 109.289 548.975 109.168 549.587 109.168C550.222 109.168 550.765 109.283 551.213 109.513C551.667 109.743 552.046 110.073 552.348 110.503C552.651 110.927 552.888 111.436 553.057 112.03C553.233 112.617 553.363 113.271 553.448 113.992V114.601C553.369 115.303 553.236 115.945 553.048 116.527C552.86 117.108 552.612 117.611 552.303 118.035C551.994 118.459 551.613 118.786 551.158 119.016C550.71 119.246 550.18 119.361 549.568 119.361C548.969 119.361 548.427 119.237 547.942 118.989C547.464 118.741 547.052 118.392 546.706 117.944C546.367 117.496 546.107 116.969 545.925 116.363C545.743 115.752 545.653 115.088 545.653 114.374ZM547.842 114.183V114.374C547.842 114.822 547.885 115.24 547.969 115.627C548.06 116.015 548.196 116.357 548.378 116.654C548.566 116.945 548.802 117.175 549.087 117.345C549.378 117.508 549.72 117.59 550.113 117.59C550.628 117.59 551.049 117.481 551.376 117.263C551.709 117.045 551.964 116.751 552.139 116.381C552.321 116.006 552.448 115.588 552.521 115.128V113.483C552.485 113.126 552.409 112.793 552.294 112.484C552.185 112.175 552.037 111.905 551.849 111.675C551.661 111.439 551.425 111.257 551.14 111.13C550.855 110.997 550.519 110.93 550.132 110.93C549.738 110.93 549.396 111.015 549.105 111.185C548.814 111.354 548.575 111.587 548.387 111.884C548.206 112.181 548.069 112.526 547.978 112.92C547.888 113.314 547.842 113.735 547.842 114.183ZM556.682 118.09C556.682 117.75 556.797 117.466 557.027 117.236C557.258 116.999 557.569 116.881 557.963 116.881C558.363 116.881 558.675 116.999 558.899 117.236C559.129 117.466 559.244 117.75 559.244 118.09C559.244 118.429 559.129 118.713 558.899 118.944C558.675 119.174 558.363 119.289 557.963 119.289C557.569 119.289 557.258 119.174 557.027 118.944C556.797 118.713 556.682 118.429 556.682 118.09ZM561.861 118.09C561.861 117.75 561.976 117.466 562.206 117.236C562.436 116.999 562.748 116.881 563.142 116.881C563.542 116.881 563.853 116.999 564.078 117.236C564.308 117.466 564.423 117.75 564.423 118.09C564.423 118.429 564.308 118.713 564.078 118.944C563.853 119.174 563.542 119.289 563.142 119.289C562.748 119.289 562.436 119.174 562.206 118.944C561.976 118.713 561.861 118.429 561.861 118.09ZM567.039 118.09C567.039 117.75 567.154 117.466 567.385 117.236C567.615 116.999 567.927 116.881 568.32 116.881C568.72 116.881 569.032 116.999 569.256 117.236C569.486 117.466 569.601 117.75 569.601 118.09C569.601 118.429 569.486 118.713 569.256 118.944C569.032 119.174 568.72 119.289 568.32 119.289C567.927 119.289 567.615 119.174 567.385 118.944C567.154 118.713 567.039 118.429 567.039 118.09Z" fill="#0023D2"/>
<path d="M340.498 38.1489C339.27 38.1489 338.166 37.8822 337.186 37.3488C336.218 36.8154 335.455 36.0463 334.897 35.0415C334.339 34.0368 334.06 32.8521 334.06 31.4876C334.06 30.1231 334.333 28.9385 334.879 27.9338C335.437 26.929 336.2 26.1599 337.167 25.6265C338.147 25.0931 339.257 24.8264 340.498 24.8264C341.515 24.8264 342.427 25.0249 343.233 25.4218C344.052 25.8064 344.703 26.346 345.187 27.0406C345.671 27.7353 345.956 28.523 346.043 29.4037H343.866C343.742 28.6098 343.369 27.9648 342.749 27.4686C342.141 26.96 341.391 26.7057 340.498 26.7057C339.667 26.7057 338.929 26.898 338.284 27.2825C337.651 27.6547 337.155 28.2067 336.795 28.9385C336.435 29.658 336.255 30.5077 336.255 31.4876C336.255 32.4676 336.435 33.3173 336.795 34.0368C337.155 34.7562 337.657 35.3082 338.302 35.6928C338.947 36.0773 339.679 36.2696 340.498 36.2696C341.081 36.2696 341.614 36.1517 342.098 35.916C342.594 35.668 342.997 35.3268 343.307 34.8927C343.63 34.4585 343.835 33.9747 343.921 33.4413H346.098C345.999 34.3221 345.702 35.1222 345.205 35.8416C344.722 36.5487 344.07 37.1131 343.252 37.5348C342.445 37.9442 341.527 38.1489 340.498 38.1489ZM347.791 24.8264H349.931V29.2548C350.253 28.7587 350.725 28.3493 351.345 28.0268C351.977 27.7043 352.654 27.543 353.373 27.543C354.092 27.543 354.744 27.6981 355.327 28.0082C355.922 28.3059 356.387 28.7338 356.722 29.292C357.057 29.8378 357.225 30.4705 357.225 31.1899V38H355.085V31.7109C355.085 31.0287 354.88 30.4829 354.471 30.0735C354.074 29.6518 353.547 29.4409 352.889 29.4409C352.306 29.4409 351.791 29.5898 351.345 29.8875C350.898 30.1852 350.551 30.6317 350.303 31.2271C350.055 31.8226 349.931 32.542 349.931 33.3855V38H347.791V24.8264ZM362.655 38.1489C361.551 38.1489 360.677 37.8884 360.032 37.3674C359.399 36.834 359.083 36.1145 359.083 35.209C359.083 34.2538 359.436 33.491 360.143 32.9204C360.85 32.3498 361.948 31.9838 363.437 31.8226L366.153 31.5249V33.1436L363.474 33.4413C362.717 33.5158 362.153 33.7018 361.781 33.9996C361.408 34.2849 361.222 34.6632 361.222 35.1346C361.222 35.5191 361.377 35.8354 361.688 36.0835C362.01 36.3316 362.426 36.4556 362.934 36.4556C363.827 36.4556 364.547 36.1703 365.093 35.5997C365.638 35.0291 365.911 34.2414 365.911 33.2367V31.2644C365.911 30.855 365.812 30.5015 365.614 30.2038C365.428 29.8937 365.161 29.658 364.813 29.4967C364.466 29.3355 364.063 29.2548 363.604 29.2548C362.922 29.2548 362.364 29.4347 361.929 29.7944C361.508 30.1418 361.26 30.6255 361.185 31.2458H359.101C359.188 30.5387 359.436 29.9061 359.845 29.3479C360.255 28.7897 360.782 28.3493 361.427 28.0268C362.072 27.7043 362.798 27.543 363.604 27.543C364.472 27.543 365.235 27.7043 365.893 28.0268C366.563 28.3369 367.084 28.7897 367.456 29.3851C367.84 29.9805 368.032 30.6876 368.032 31.5062V38H365.911V36.4742C365.676 36.9704 365.26 37.3736 364.665 37.6837C364.069 37.9938 363.399 38.1489 362.655 38.1489ZM373.973 38.1302C373.353 38.1302 372.801 38.0062 372.317 37.7581C371.833 37.51 371.449 37.1441 371.163 36.6603C370.89 36.1641 370.754 35.5687 370.754 34.8741V25.5521H372.875V34.688C372.875 35.209 372.999 35.6059 373.247 35.8788C373.495 36.1517 373.83 36.2882 374.252 36.2882C374.612 36.2882 374.965 36.22 375.313 36.0835V37.8884C374.891 38.0496 374.444 38.1302 373.973 38.1302ZM369.228 27.6919H375.164V29.4223H369.228V27.6919ZM382.409 38.1489C381.702 38.1489 381.032 38 380.4 37.7023C379.779 37.4046 379.308 37.0138 378.986 36.5301V38H376.846V24.8264H378.986V29.1804C379.308 28.6842 379.779 28.2873 380.4 27.9896C381.032 27.6919 381.708 27.543 382.428 27.543C383.395 27.543 384.251 27.7601 384.996 28.1942C385.752 28.6284 386.335 29.2486 386.745 30.0549C387.166 30.8488 387.377 31.7791 387.377 32.8459C387.377 33.9003 387.166 34.8307 386.745 35.6369C386.335 36.4432 385.752 37.0635 384.996 37.4976C384.239 37.9318 383.377 38.1489 382.409 38.1489ZM382.093 36.3068C382.701 36.3068 383.24 36.1641 383.712 35.8788C384.195 35.5811 384.568 35.1718 384.828 34.6508C385.089 34.1298 385.219 33.5282 385.219 32.8459C385.219 32.1637 385.089 31.5621 384.828 31.0411C384.568 30.5201 384.195 30.1169 383.712 29.8316C383.24 29.5339 382.701 29.3851 382.093 29.3851C381.497 29.3851 380.964 29.5339 380.493 29.8316C380.021 30.1169 379.649 30.5201 379.376 31.0411C379.116 31.5621 378.986 32.1637 378.986 32.8459C378.986 33.5282 379.116 34.1298 379.376 34.6508C379.649 35.1718 380.021 35.5811 380.493 35.8788C380.964 36.1641 381.497 36.3068 382.093 36.3068ZM393.946 38.1489C392.929 38.1489 392.017 37.9256 391.211 37.479C390.417 37.02 389.79 36.3874 389.331 35.5811C388.885 34.7748 388.661 33.8631 388.661 32.8459C388.661 31.8288 388.885 30.917 389.331 30.1107C389.79 29.3044 390.417 28.678 391.211 28.2315C392.017 27.7725 392.929 27.543 393.946 27.543C394.95 27.543 395.856 27.7725 396.662 28.2315C397.469 28.678 398.095 29.3044 398.542 30.1107C399.001 30.917 399.23 31.8288 399.23 32.8459C399.23 33.8631 399.001 34.7748 398.542 35.5811C398.095 36.3874 397.469 37.02 396.662 37.479C395.856 37.9256 394.95 38.1489 393.946 38.1489ZM393.946 36.3254C394.541 36.3254 395.075 36.1765 395.546 35.8788C396.03 35.5811 396.402 35.1718 396.662 34.6508C396.935 34.1298 397.072 33.5282 397.072 32.8459C397.072 32.1637 396.935 31.5621 396.662 31.0411C396.402 30.5201 396.03 30.1107 395.546 29.813C395.075 29.5153 394.541 29.3665 393.946 29.3665C393.338 29.3665 392.798 29.5153 392.327 29.813C391.856 30.1107 391.483 30.5201 391.211 31.0411C390.95 31.5621 390.82 32.1637 390.82 32.8459C390.82 33.5282 390.95 34.1298 391.211 34.6508C391.483 35.1718 391.856 35.5811 392.327 35.8788C392.798 36.1765 393.338 36.3254 393.946 36.3254ZM404.7 38.1302C404.079 38.1302 403.527 38.0062 403.044 37.7581C402.56 37.51 402.175 37.1441 401.89 36.6603C401.617 36.1641 401.481 35.5687 401.481 34.8741V25.5521H403.602V34.688C403.602 35.209 403.726 35.6059 403.974 35.8788C404.222 36.1517 404.557 36.2882 404.979 36.2882C405.338 36.2882 405.692 36.22 406.039 36.0835V37.8884C405.617 38.0496 405.171 38.1302 404.7 38.1302ZM399.955 27.6919H405.89V29.4223H399.955V27.6919Z" fill="#808080"/>
<path d="M307.788 253.04L317.091 258.239V268.637L307.788 273.836L298.484 268.637V258.239L307.788 253.04Z" fill="#F9BEBE"/>
<path d="M307.785 256.871L313.805 260.155V266.722L307.785 270.005L301.766 266.722V260.155L307.785 256.871Z" fill="#F15C5C"/>
<path d="M307.425 264.533L306.695 260.155H308.884L308.155 264.533H307.425Z" fill="white"/>
<circle cx="307.782" cy="265.901" r="0.820886" fill="white"/>
<path d="M309.342 354.921L318.646 360.12V370.518L309.342 375.717L300.039 370.518V360.12L309.342 354.921Z" fill="#F9BEBE"/>
<path d="M309.34 358.752L315.36 362.036V368.603L309.34 371.886L303.32 368.603V362.036L309.34 358.752Z" fill="#F15C5C"/>
<path d="M308.98 366.414L308.25 362.036H310.439L309.709 366.414H308.98Z" fill="white"/>
<circle cx="309.337" cy="367.782" r="0.820886" fill="white"/>
<rect x="313.992" y="238.629" width="15.5056" height="15.5056" rx="7.75281" fill="#0023D2"/>
<path d="M322.681 242.586V250.329H321.404V244.102L319.512 244.743V243.689L322.527 242.586H322.681Z" fill="white"/>
<rect x="315.539" y="339.416" width="15.5056" height="15.5056" rx="7.75281" fill="#0023D2"/>
<path d="M325.853 348.465V349.483H320.288L320.246 348.714L323.574 343.499H324.597L323.49 345.397L321.576 348.465H325.853ZM324.889 343.499V351.216H323.611V343.499H324.889Z" fill="white"/>
<defs>
<linearGradient id="paint0_linear_17508_41658" x1="48.1811" y1="274.544" x2="55.92" y2="274.544" gradientUnits="userSpaceOnUse">
<stop stop-color="#ADBAFF"/>
<stop offset="1" stop-color="#92A2FA"/>
</linearGradient>
</defs>
</svg>
